<?xml version="1.0" encoding="UTF-8"?> <svg xmlns="http://www.w3.org/2000/svg" xmlns:xlink="http://www.w3.org/1999/xlink" xmlns:svgjs="http://svgjs.com/svgjs" version="1.1" width="512" height="512" x="0" y="0" viewBox="0 0 512 512" style="enable-background:new 0 0 512 512" xml:space="preserve" class=""><g><g xmlns="http://www.w3.org/2000/svg"><g><path d="m434.3 189-281.54-20h-75.06l11.325 40h333.95z" fill="#4e5a61" data-original="#4e5a61" class=""></path><path d="m371 169h63.3v20h-63.3z" fill="#5f6c75" data-original="#5f6c75" class=""></path><path d="m351.987 390.43c30.996-30.995 57.59-36.605 57.59-71.61 0-12.96-6.724-22.862-17.494-37.46s-15.708-26.28-15.708-49.693v-86.667l-237.828-10v96.667c0 23.413 4.938 35.096 15.708 49.693 10.77 14.598 17.494 24.5 17.494 37.46 0 35.005-26.595 40.615-57.592 71.612-10.237 10.237-16.568 24.379-16.568 40l255.436 10c-4.509-18.675-5.253-45.788-1.038-50.002z" fill="#65b530" data-original="#c9eb74" class=""></path><path d="m392.463 373.863h-21.388c-5.88 4.752-12.146 10.103-18.61 16.566-4.215 4.214-3.472 21.327 1.037 40.002h-238.114c-4.106 0-7.358-3.593-6.807-7.662 1.7-12.556 7.52-23.804 16.054-32.338 30.997-30.997 57.592-36.607 57.592-71.612 0-12.96-6.724-22.862-17.494-37.46s-15.708-26.28-15.708-49.693c0-31.242 0-86.667 0-86.667h227.828c0-17.466 0-40 0-40h-242.828v126.667c0 23.413 4.938 35.096 15.708 49.693 10.77 14.598 17.494 24.5 17.494 37.46 0 35.005-26.595 40.615-57.592 71.612-10.237 10.237-16.568 24.379-16.568 40 0 31.242 25.327 56.568 56.568 56.568h242.828c-18.38.001 6.443-86.448 0-113.136z" fill="#72c43b" data-original="#abd641" class=""></path><circle cx="392.463" cy="430.432" fill="#7dc03a" r="56.568" data-original="#7dc03a" class=""></circle><circle cx="392.463" cy="430.432" fill="#5f6c75" r="15" data-original="#5f6c75" class=""></circle><path d="m438.222 115h-364.444l15.247-90h333.95z" fill="#5f6c75" data-original="#5f6c75" class=""></path><path d="m474.5 25h-31.525l-10 174s55.393-10 71.525-10v-134c0-16.569-13.431-30-30-30z" fill="#b9c3cd" data-original="#b9c3cd"></path><path d="m442.975 25h-20v184h66.525c8.284 0 15-6.716 15-15v-5c-16.132 0-61.525 0-61.525 0z" fill="#909ba6" data-original="#909ba6"></path><path d="m37.5 25c-3.03 0-5.954.454-8.711 1.289-.835 2.757-11.289 8.711-11.289 8.711v164h51.525l20-30v-144z" fill="#b9c3cd" data-original="#b9c3cd"></path><path d="m42.5 189c-8.284 0-15-6.716-15-15v-139c0-3.03.454-5.954 1.289-8.711-12.319 3.733-21.289 15.173-21.289 28.711v139c0 8.284 6.716 15 15 15h66.525v-40l-20 20z" fill="#909ba6" data-original="#909ba6"></path></g><g><path d="m392.463 494.5h-242.828c-35.384 0-64.068-28.684-64.068-64.068 0-11.172 2.921-22.175 8.448-31.818 2.061-3.594 6.644-4.838 10.236-2.777 3.594 2.06 4.837 6.643 2.777 10.236-4.228 7.376-6.462 15.799-6.462 24.359 0 27.1 21.969 49.068 49.068 49.068h201.624c-5.353-4.512-22.864-20.72-22.864-48.962v-.003c0-.016 0-.031 0-.046 0-.002 0-.003 0-.005 0-.017 0-.035 0-.051s0-.035 0-.051c0-.002 0-.003 0-.005 0-.016 0-.031 0-.047v-.003c.027-17.073 6.689-33.121 18.765-45.197 9.733-9.733 18.947-16.967 27.077-23.349 17.66-13.865 28.319-22.233 28.319-42.959 0-3.21-.528-6.3-1.614-9.444-1.353-3.915.725-8.185 4.64-9.538 3.92-1.354 8.186.725 9.538 4.64 1.64 4.746 2.437 9.438 2.437 14.342 0 23.404-10.484 35.491-25.027 47.543 35.298.035 64.003 28.763 64.003 64.068-.001 35.326-28.742 64.067-64.069 64.067zm0-15c27.057 0 49.068-22.012 49.068-49.068s-22.012-49.068-49.068-49.068c-27.03 0-49.025 21.967-49.068 48.988v.001.079s0 .053 0 .079v.002c.043 26.994 21.994 48.944 48.987 48.987.021-.007.054 0 .081 0zm0-26.568c-12.406 0-22.5-10.093-22.5-22.5s10.094-22.5 22.5-22.5 22.5 10.093 22.5 22.5-10.094 22.5-22.5 22.5zm0-30c-4.136 0-7.5 3.365-7.5 7.5 0 4.136 3.364 7.5 7.5 7.5s7.5-3.364 7.5-7.5-3.364-7.5-7.5-7.5zm-271.837-35.207c-2.1 0-4.187-.876-5.67-2.587-2.713-3.13-2.375-7.867.755-10.58 5.559-4.819 10.945-9.048 15.697-12.779 17.66-13.865 28.319-22.234 28.319-42.959 0-10.167-5.134-18.237-16.029-33.007-11.138-15.095-17.173-28.194-17.173-54.146v-15.167h-104.025c-12.406 0-22.5-10.093-22.5-22.5v-139c0-20.678 16.822-37.5 37.5-37.5h355.475c4.143 0 7.5 3.358 7.5 7.5s-3.357 7.5-7.5 7.5h-296.45v75h144.475c4.143 0 7.5 3.358 7.5 7.5s-3.357 7.5-7.5 7.5h-99.475v109.167c0 22.055 4.593 32.161 14.243 45.241 11.452 15.523 18.959 26.827 18.959 41.912 0 28.02-15.029 39.819-34.057 54.758-4.844 3.802-9.852 7.734-15.136 12.314-1.417 1.23-3.167 1.833-4.908 1.833zm-24.101-186.225h30v-25h-30zm-59.025-169c-12.406 0-22.5 10.093-22.5 22.5v139c0 4.136 3.364 7.5 7.5 7.5h59.025v-169zm59.025 129h30v-39h-30zm290.001 124.313c-11.137-15.095-17.173-28.194-17.173-54.146v-109.167h-98.353c-4.143 0-7.5-3.358-7.5-7.5s3.357-7.5 7.5-7.5h144.475v-82.5c0-4.142 3.357-7.5 7.5-7.5h51.525c20.678 0 37.5 16.822 37.5 37.5v139c0 12.407-10.094 22.5-22.5 22.5h-105.146v15.167c0 22.055 4.593 32.161 14.243 45.241 2.459 3.333 1.751 8.029-1.582 10.488-3.334 2.459-8.029 1.75-10.489-1.583zm43.949-84.313h59.025c4.136 0 7.5-3.364 7.5-7.5v-139c0-12.407-10.094-22.5-22.5-22.5h-44.025zm-46.121 0h31.121v-25h-31.121zm0-40h31.121v-39h-31.121zm89.646-36.5c-4.411 0-8-3.589-8-8s3.589-8 8-8 8 3.589 8 8-3.589 8-8 8zm0-30c-4.411 0-8-3.589-8-8s3.589-8 8-8 8 3.589 8 8-3.589 8-8 8zm0-30c-4.411 0-8-3.589-8-8s3.589-8 8-8 8 3.589 8 8-3.589 8-8 8z" fill="#000000" data-original="#000000" class=""></path></g></g></g></svg> 