<?xml version="1.0" encoding="UTF-8"?> <svg xmlns="http://www.w3.org/2000/svg" xmlns:xlink="http://www.w3.org/1999/xlink" xmlns:svgjs="http://svgjs.com/svgjs" version="1.1" width="512" height="512" x="0" y="0" viewBox="0 0 512 512" style="enable-background:new 0 0 512 512" xml:space="preserve" class=""><g><g xmlns="http://www.w3.org/2000/svg"><g><g><g><path d="m488.533 473.579h-132.66l-89.84 30.692h222.5c8.475 0 15.346-6.871 15.346-15.346s-6.87-15.346-15.346-15.346z" fill="#65b530" data-original="#e08ea2" class=""></path></g><g><path d="m65.162 425.102-44.547 44.548-9.869 30.727 31.082-9.514 44.571-44.571z" fill="#e5ecf5" data-original="#e5ecf5" class=""></path></g><g><path d="m46.587 443.677-25.972 25.973-9.869 30.727 31.082-9.514 25.973-25.973-31.082 9.514z" fill="#cad8eb" data-original="#cad8eb" class=""></path></g><g><path d="m442.21 48.054-44.548 44.548 21.214 21.213 44.571-44.571z" fill="#e5ecf5" data-original="#e5ecf5" class=""></path></g><g><path d="m405.485 81.487h19.011v30h-19.011z" fill="#cad8eb" transform="matrix(.707 -.707 .707 .707 53.321 321.703)" data-original="#cad8eb" class=""></path></g><g><path d="m355.873 473.579-89.84 30.692h74.815c18.865-8.123 36.548-18.461 52.724-30.692z" fill="#71c43a" data-original="#d15573" class=""></path></g><g><circle cx="240.416" cy="270.707" fill="#71c43a" r="233.564" data-original="#d15573" class=""></circle></g><g><path d="m256.507 488.18c-128.994 0-233.564-104.57-233.564-233.564 0-60.403 22.931-115.45 60.56-156.913-47.083 42.73-76.651 104.414-76.651 173.004 0 128.994 104.57 233.564 233.564 233.564 68.59 0 130.274-29.568 173.003-76.651-41.462 37.63-96.509 60.56-156.912 60.56z" fill="#50a319" data-original="#c21d44" class=""></path></g><g><path d="m466.52 329.474c-156.397-5.605-279.265-128.473-284.871-284.87-37.064 9.606-70.554 28.083-98.069 53.032-11.494 12.643-21.629 26.544-30.154 41.486.004 176.017 142.437 318.448 318.457 318.448l.226.069c14.9-8.512 28.764-18.626 41.377-30.092 24.95-27.517 43.427-61.008 53.034-98.073z" fill="#50a319" data-original="#c21d44" class=""></path></g><g><path d="m165.416 49.446c-54.475 18.459-99.923 56.475-128.001 105.684.005 176.018 142.438 318.448 318.458 318.448l.226.069c49.158-28.082 87.132-73.505 105.578-127.941-165.423 0-296.26-130.836-296.261-296.26z" fill="#65b530" data-original="#e08ea2" class=""></path></g><g><path d="m372.008 457.739-.226-.069c-176.019 0-318.453-142.43-318.458-318.448 8.532-14.954 18.678-28.867 30.184-41.519-18.22 16.537-33.817 35.912-46.093 57.427.005 176.018 142.438 318.448 318.458 318.448l.226.069c21.471-12.266 40.808-27.841 57.316-46.029-12.62 11.479-26.495 21.602-41.407 30.121z" fill="#71c43a" data-original="#d15573" class=""></path></g><g><path d="m433.312 402.865c-6.8 4.93-13.872 9.507-21.199 13.693l-.226-.069c-175.997 0-318.416-142.394-318.457-318.382-3.675 2.68-7.394 5.3-11.145 7.865-1.639 2.625-3.228 5.284-4.765 7.977.005 176.018 142.438 318.448 318.458 318.448l.226.069c9.989-5.706 19.509-12.138 28.504-19.206 2.864-3.469 5.751-6.92 8.604-10.395z" fill="#71c43a" data-original="#d15573" class=""></path></g><g><path d="m449.243 374.231c-171.672-3.117-309.925-141.718-312.491-313.525-5.279 4.004-10.549 8.019-15.96 11.841.426 175.375 142.235 317.2 317.603 317.656 3.29-5.536 6.983-10.807 10.848-15.972z" fill="#71c43a" data-original="#d15573" class=""></path></g><g><circle cx="475.148" cy="37.729" fill="#65b530" r="30" data-original="#e8ab4c" class=""></circle></g><g><path d="m469.859 43.018c-8.899-8.899-11.031-21.995-6.411-32.914-3.456 1.462-6.696 3.595-9.513 6.411-11.716 11.716-11.716 30.711 0 42.426 11.716 11.716 30.711 11.716 42.426 0 2.817-2.817 4.949-6.057 6.411-9.513-10.918 4.621-24.015 2.489-32.913-6.41z" fill="#65b530" data-original="#df941e" class=""></path></g><g><path d="m202.916 130.527h15v15h-15z" fill="#ffffff" transform="matrix(.866 -.5 .5 .866 -40.823 123.698)" data-original="#ffffff" class=""></path></g><g><path d="m175.918 300.707h15v15h-15z" fill="#ffffff" transform="matrix(.755 -.656 .656 .755 -157.218 195.954)" data-original="#ffffff" class=""></path></g><g><path d="m427.012 308.207h15v15h-15z" fill="#ffffff" data-original="#ffffff" class=""></path></g></g></g><g><path d="m487.97 466.266h-106.546c10.241-7.466 19.978-15.781 29.101-24.938 45.405-45.574 70.412-106.166 70.412-170.617 0-56.799-19.431-110.594-55.119-153.761l42.332-42.488c11.821 2.048 23.967-1.479 32.915-10.404 14.581-14.635 14.581-38.447 0-53.082s-38.306-14.636-52.887 0c-8.314 8.345-11.88 19.674-10.712 30.584l-43.351 43.511c-43.073-36.025-96.82-55.647-153.579-55.647-64.213 0-124.583 25.098-169.989 70.671-45.405 45.574-70.412 106.166-70.412 170.617 0 56.968 19.55 110.914 55.443 154.146l-40.807 40.957-14.771 46.163 46.465-14.275 40.875-41.026c43.008 35.82 96.606 55.323 153.196 55.323h179.504v-15.014h-95.71c11.645-4.337 22.94-9.579 33.793-15.706h129.847c10.285.186 10.278 15.523 0 15.706h-23.054v15.014h23.054c30.051-.796 30.029-44.948 0-45.734zm-85.557-38.24c-132.352-1.067-248.717-81.319-296.945-205.09l-13.931 5.469c24.386 62.582 66.441 115.998 121.618 154.474 51.523 35.927 111.291 56.39 173.849 59.7-10.285 8.843-21.369 16.772-33.128 23.665-169.451-.974-307.124-139.046-308.275-309.081 6.826-11.76 14.68-22.847 23.434-33.142 1.668 30.651 7.411 60.741 17.164 89.682l14.17-4.81c-10.868-32.251-16.527-66-16.866-100.363 9.321-9.094 19.415-17.391 30.182-24.773 3.338 82.614 36.911 159.76 95.429 218.494s135.381 92.431 217.691 95.781c-7.278 10.691-15.445 20.722-24.392 29.994zm-76.105 51.929c-19.82 8.215-41.047 13.681-63.215 15.902.288-9.123 1.163-18.213 2.611-27.169 19.653 5.639 39.924 9.424 60.604 11.267zm-291.487-272.249c-8.604 18.631-15.172 37.894-19.659 57.671.659-28.435 6.579-55.584 16.804-80.517.688 7.675 1.642 15.293 2.855 22.846zm5.293 26.18c3.272 13.311 7.367 26.365 12.271 39.095-10.37 27.648-16.898 56.41-19.486 85.859-3.983-9.417-7.333-19.164-10.028-29.179.126-33.143 5.913-65.256 17.243-95.775zm21.004 59.605c6.873 14.72 14.853 28.94 23.919 42.543-8.394 26.744-13.42 54.426-14.988 82.574-8.743-10.14-16.594-21.072-23.455-32.661.206-31.667 5.083-62.674 14.524-92.456zm34.948 58.049c9.036 11.98 18.935 23.427 29.703 34.234.068.068.137.133.205.201-6.421 23.556-10.192 47.834-11.261 72.405-10.766-7.295-20.869-15.502-30.208-24.502.332-28.008 4.211-55.622 11.561-82.338zm42.311 46.228c9.37 8.469 19.154 16.333 29.303 23.578-4.68 19.707-7.419 39.992-8.187 60.508-10.429-4.046-20.486-8.846-30.103-14.339.4-23.625 3.42-47.011 8.987-69.747zm42.604 32.585c9.088 5.829 18.433 11.187 28.012 16.052-3.28 15.556-5.197 31.464-5.705 47.476-9.891-1.658-19.569-3.955-28.984-6.865.427-19.185 2.665-38.175 6.677-56.663zm151.903-251.205c33.289-12.373 68.283-18.871 104.079-19.368 5.431 9.65 10.174 19.737 14.168 30.195-69.154 2.448-134.806 27.804-186.573 72.167-9.213-8.556-17.859-17.714-25.864-27.434 23.95-20.549 50.69-37.257 79.585-49.704l-5.9-13.797c-30.087 12.961-57.942 30.332-82.914 51.674-8.792-11.909-16.667-24.558-23.561-37.835 56.098-44.773 126.122-69.552 198.072-70.026 8.783 9.283 16.787 19.313 23.916 29.981-34.417 1.396-68.063 8.122-100.202 20.067zm132.953 99.151c-42.363 1.063-83.021 13.937-118.154 37.438-10.517-4.41-20.697-9.423-30.502-14.996 42.316-32.601 94.161-51.033 147.691-52.452 1.301 7.711 2.188 22.316.965 30.01zm-.984 15.047c-1.537 15.46-4.629 30.468-9.12 44.861-31.825-.566-62.232-6.072-90.52-15.805 30.192-17.988 64.257-27.939 99.64-29.056zm-161.35-.913c-9.614-6.21-18.819-12.981-27.57-20.274 50.078-42.25 113.58-65.982 180.291-67.318 2.813 9.261 5.044 18.773 6.661 28.493-58.061 1.887-114.169 22.663-159.382 59.099zm-13.276-171.94c-32.843 12.066-63.416 29.128-91.029 50.749-6.07-13.406-11.172-27.383-15.188-41.862 51.077-34.406 110.624-52.578 172.564-52.597 11.455 6.931 22.246 14.854 32.26 23.651-33.834 1.707-66.93 8.421-98.607 20.059zm-110.041-6.559c-2.247-10.23-3.959-20.683-5.127-31.325 38.328-19.375 81.271-29.599 124.533-29.599v-.678c10.334 2.818 20.375 6.354 30.066 10.556-53.403 4.391-104.453 21.79-149.472 51.046zm-6.461-47.387c-.22-3.92-.367-7.862-.437-11.827 20.646-6.489 42.562-10.059 65.266-10.257-22.409 4.79-44.211 12.202-64.829 22.084zm72.588 198.366c54.301 54.501 126.467 85.563 204.196 88.174-4.086 10.457-8.921 20.539-14.448 30.174-168.627-2.322-305.347-139.547-307.66-308.796 9.599-5.547 19.645-10.4 30.063-14.501 2.601 78.016 33.549 150.448 87.849 204.949zm212.442-243.32c4.374-4.39 10.12-6.585 15.866-6.585s11.492 2.195 15.866 6.585c8.748 8.781 8.748 23.068 0 31.849-8.748 8.78-22.983 8.781-31.732 0-8.748-8.781-8.748-23.068 0-31.849zm-15.872 35.763c2.565 4.186 6.235 8.087 10.293 10.902l-37.282 37.42c-1.761-1.882-8.814-8.973-10.565-10.63zm-404.36 427.086-15.527 4.77 4.911-15.348 37.611-37.75c1.65 1.757 8.716 8.837 10.59 10.604zm179.671 11.434c.373-14.427 1.961-28.769 4.715-42.824 9.273 4.161 18.741 7.87 28.373 11.132-1.841 10.749-2.919 21.688-3.194 32.662-9.949.362-20.098.005-29.894-.97z" fill="#000000" data-original="#000000" class=""></path><path d="m434.999 496.986h14.959v15.014h-14.959z" fill="#000000" data-original="#000000" class=""></path></g></g></g></svg> 