<?xml version="1.0" encoding="UTF-8"?> <svg xmlns="http://www.w3.org/2000/svg" xmlns:xlink="http://www.w3.org/1999/xlink" xmlns:svgjs="http://svgjs.com/svgjs" version="1.1" width="512" height="512" x="0" y="0" viewBox="0 0 512 512" style="enable-background:new 0 0 512 512" xml:space="preserve" class=""><g><g xmlns="http://www.w3.org/2000/svg"><g><path d="m89.284 504.5h-66.929c-.58 0-1.049-.47-1.049-1.049v-494.902c0-.58.47-1.049 1.049-1.049h66.929c.58 0 1.049.47 1.049 1.049v494.901c0 .58-.469 1.05-1.049 1.05z" fill="#78c843" data-original="#fc840d" class=""></path></g><g><path d="m422.716 504.5h66.929c.58 0 1.049-.47 1.049-1.049v-494.902c0-.58-.47-1.049-1.049-1.049h-66.929c-.58 0-1.049.47-1.049 1.049v494.901c0 .58.47 1.05 1.049 1.05z" fill="#78c843" data-original="#fc840d" class=""></path></g><g><path d="m379.028 366.445h-246.056c-.658 0-1.175-.562-1.12-1.218l27.51-330.116h193.278l27.51 330.116c.053.655-.464 1.218-1.122 1.218z" fill="#4a9b15" data-original="#118e5e" class=""></path></g><g><path d="m461.626 214.097-7.177-2.392c-128.815-42.938-268.082-42.938-396.898 0l-7.177 2.392c-.717.239-1.458-.295-1.458-1.051v-25.276c0-.477.305-.9.757-1.051l7.877-2.626c128.815-42.938 268.082-42.938 396.898 0l7.877 2.626c.452.151.757.574.757 1.051v25.276c.001.757-.739 1.291-1.456 1.051z" fill="#82e143" data-original="#ad6b6b" class=""></path></g><g><path d="m503.451 76.528h-494.902c-.58 0-1.049-.47-1.049-1.049v-39.318c0-.58.47-1.049 1.049-1.049h494.901c.58 0 1.049.47 1.049 1.049v39.318c.001.579-.469 1.049-1.048 1.049z" fill="#65b530" data-original="#fba65c" class=""></path></g><g><path d="m503.451 435.472h-494.902c-.58 0-1.049.47-1.049 1.049v39.318c0 .58.47 1.049 1.049 1.049h494.901c.58 0 1.049-.47 1.049-1.049v-39.318c.001-.579-.469-1.049-1.048-1.049z" fill="#65b530" data-original="#fba65c" class=""></path></g><g><path d="m351.515 490.695h-191.029c-.621 0-1.124-.503-1.124-1.124v-466.204c0-1.138.923-2.061 2.061-2.061h189.156c1.138 0 2.061.923 2.061 2.061v466.203c-.001.621-.504 1.125-1.125 1.125z" fill="#65b530" data-original="#2bb080" class=""></path></g><g><path d="m350.578 21.306h-37.94v346.501c0 56.823-46.064 102.887-102.887 102.887h-50.389v18.876c0 .621.503 1.124 1.124 1.124h191.029c.621 0 1.124-.503 1.124-1.124v-466.203c0-1.139-.923-2.061-2.061-2.061z" fill="#65b530" data-original="#09a66d" class=""></path></g><g><path d="m200.778 21.306h27.611v469.389h-27.611z" fill="#f0f0f3" data-original="#f0f0f3" class=""></path></g><g><path d="m209.751 470.694h-8.973v20.001h27.611v-21.685c-6.045 1.105-12.274 1.684-18.638 1.684z" fill="#e0dde2" data-original="#e0dde2" class=""></path></g><g><path d="m283.601 21.306h27.611v469.389h-27.611z" fill="#f0f0f3" transform="matrix(-1 0 0 -1 594.812 512)" data-original="#f0f0f3" class=""></path></g><g><path d="m283.601 439.444v51.251h27.611v-105.724c-3.527 20.998-13.413 39.839-27.611 54.473z" fill="#e0dde2" data-original="#e0dde2" class=""></path></g><g><path d="m323.996 269.806h-135.992c-.57 0-1.032-.462-1.032-1.032v-25.548c0-.57.462-1.032 1.032-1.032h135.992c.57 0 1.032.462 1.032 1.032v25.548c0 .57-.462 1.032-1.032 1.032z" fill="#82e143" data-original="#ad6b6b" class=""></path></g><path d="m503.438 27.611h-5.243v-19.049c0-4.721-3.841-8.562-8.562-8.562h-66.902c-4.722 0-8.562 3.841-8.562 8.562v19.049h-54.028v-4.245c0-5.272-4.289-9.561-9.561-9.561h-189.158c-5.272 0-9.561 4.289-9.561 9.561v4.245h-54.028v-19.049c0-4.721-3.841-8.562-8.562-8.562h-66.903c-4.721 0-8.562 3.841-8.562 8.562v19.049h-5.244c-4.721 0-8.562 3.842-8.562 8.563v39.292c0 4.721 3.841 8.562 8.562 8.562h5.243v343.944h-5.243c-4.721 0-8.562 3.841-8.562 8.562v39.292c0 4.721 3.841 8.562 8.562 8.562h5.243v19.048c0 4.721 3.841 8.562 8.562 8.562h66.903c4.721 0 8.562-3.841 8.562-8.562v-19.048h54.028v5.181c0 4.755 3.869 8.624 8.624 8.624h191.029c4.755 0 8.624-3.869 8.624-8.624v-5.181h54.028v19.048c0 4.721 3.841 8.562 8.562 8.562h66.902c4.722 0 8.562-3.841 8.562-8.562v-19.048h5.243c4.722 0 8.562-3.841 8.562-8.562v-39.292c0-4.721-3.841-8.562-8.562-8.562h-5.243v-257.887c0-4.142-3.357-7.5-7.5-7.5s-7.5 3.358-7.5 7.5v257.887h-54.027v-164.472h33.916c4.143 0 7.5-3.358 7.5-7.5s-3.357-7.5-7.5-7.5h-33.916v-36.823c12.868 3.74 21.122 6.547 30.089 9.536 2.605.868 5.506.436 7.754-1.185 2.238-1.613 3.574-4.223 3.574-6.982v-25.276c0-3.709-2.364-6.991-5.886-8.166l-7.877-2.625c-9.137-3.046-18.362-5.886-27.654-8.518v-84.433h54.027v51.056c0 4.142 3.357 7.5 7.5 7.5s7.5-3.358 7.5-7.5v-51.056h5.243c4.722 0 8.562-3.841 8.562-8.562v-39.292c.004-4.721-3.837-8.563-8.558-8.563zm-474.632-12.611h54.028v12.611h-54.028zm16.184 205.029c2.244 1.618 5.143 2.053 7.756 1.184l7.176-2.393c7.579-2.526 15.22-4.908 22.911-7.144v36.824h-33.927c-4.142 0-7.5 3.358-7.5 7.5s3.358 7.5 7.5 7.5h33.927v164.472h-54.027v-343.944h54.028v84.433c-9.292 2.632-18.517 5.473-27.654 8.518l-7.877 2.625c-3.521 1.173-5.886 4.455-5.886 8.166v25.276c0 2.759 1.336 5.37 3.573 6.983zm10.83 227.405-7.437-4.462h14.873zm7.436 21.955h-14.873l7.437-4.462zm-14.873-400.361 7.436-4.462 7.436 4.462zm7.437-21.955-7.436-4.462h14.873zm-40.82-4.462h4.228l22.014 13.209-22.014 13.208h-4.228zm4.228 426.778h-4.228v-26.417h4.228l22.014 13.208zm63.605 27.611h-54.027v-12.611h54.028v12.611zm69.028-69.028h-14.764c-4.142 0-7.5 3.358-7.5 7.5s3.358 7.5 7.5 7.5h14.764v26.417h-59.45l-22.014-13.208 22.014-13.208h9.685c4.142 0 7.5-3.358 7.5-7.5s-3.358-7.5-7.5-7.5h-4.263v-164.473h34.969l-8.425 101.104c-.2 2.396.62 4.786 2.248 6.556s3.941 2.785 6.347 2.785h18.889zm-54.028-179.472v-40.98c13.362-3.524 26.85-6.606 40.403-9.23l-4.184 50.21zm54.028 110.444h-11.96l7.954-95.444h4.007v95.444zm0-110.444h-2.757l2.757-33.079zm0-67.902c-32.266 5.366-64.362 13.291-95.444 23.58v-11.801l3.506-1.168c30.29-10.096 61.206-17.772 91.938-23.011zm-54.028-16.189v-80.381h49.925l-5.892 70.704c-14.767 2.701-29.469 5.932-44.033 9.677zm54.028-95.381h-59.45l-22.014-13.208 22.014-13.208h59.45zm139.24-40.222h12.611v205.889h-12.611zm-55.212 0h40.211v205.889h-40.211zm-42.611 454.388h-26.417v-219.694h12.611v5.274c0 4.705 3.827 8.532 8.532 8.532h5.274zm0-248.5h-5.274c-4.705 0-8.532 3.827-8.532 8.532v5.274h-12.611v-219.694h26.417v27.014c0 4.142 3.358 7.5 7.5 7.5s7.5-3.358 7.5-7.5v-27.014h12.611v205.889h-12.611v-143.874c0-4.142-3.358-7.5-7.5-7.5s-7.5 3.358-7.5 7.5zm27.611 248.5h-12.611v-205.888h12.611zm55.212 0h-40.211v-205.888h40.211zm27.611 0h-12.611v-205.888h12.611zm13.816-220.888h-123.056v-12.611h123.056zm27.611 220.888h-26.427v-205.888h5.284c4.705 0 8.532-3.827 8.532-8.532v-5.274h12.61v219.694zm0-296.274v.145 61.435h-12.61v-5.274c0-4.705-3.827-8.532-8.532-8.532h-5.284v-205.888h26.427v158.114zm84.028-171.92h54.027v12.611h-54.027zm-69.028 200.412 2.757 33.088h-2.757zm0 48.088h4.007l7.953 95.444h-11.96zm0 110.444h18.89c2.405 0 4.718-1.015 6.347-2.785 1.628-1.77 2.447-4.16 2.247-6.556l-8.426-101.103h34.97v164.472h-54.028zm13.624-175.654c13.554 2.624 27.041 5.706 40.404 9.23v40.98h-36.22zm109.431 298.71h-54.027v-12.611h54.027zm9.567-54.028h4.239v26.417h-4.239l-22.014-13.208zm-29.154 0-7.437 4.462-7.437-4.462zm-7.437 21.955 7.437 4.462h-14.874zm-14.577-8.746-22.014 13.208h-59.441v-26.417h59.441zm10.484-264.972 3.507 1.168v11.801c-30.139-9.976-62.201-18.052-95.445-23.581v-12.399c30.369 5.18 61.28 12.792 91.938 23.011zm-87.836-107.181h49.926v80.381c-14.564-3.744-29.266-6.976-44.034-9.677zm55.338-15h-59.441v-26.417h59.441l22.014 13.208zm29.154 0 7.437-4.462 7.437 4.462zm7.437-21.955-7.437-4.462h14.874zm40.83 21.955h-4.24l-22.013-13.208 22.014-13.208h4.239z" fill="#000000" data-original="#000000" class=""></path></g></g></svg> 