<?xml version="1.0" encoding="UTF-8"?> <svg xmlns="http://www.w3.org/2000/svg" xmlns:xlink="http://www.w3.org/1999/xlink" xmlns:svgjs="http://svgjs.com/svgjs" version="1.1" width="512" height="512" x="0" y="0" viewBox="0 0 512 512" style="enable-background:new 0 0 512 512" xml:space="preserve" class=""><g><path xmlns="http://www.w3.org/2000/svg" d="m494.523438 127.4375c9.96875-9.96875 9.96875-26.132812 0-36.101562l-.550782-.550782c-5.867187-5.871094-8.277344-13.886718-7.238281-21.519531-7.632813 1.039063-15.648437-1.371094-21.519531-7.238281l-.550782-.550782c-9.96875-9.96875-26.132812-9.96875-36.101562 0l-.550781.550782c-9.96875 9.96875-26.132813 9.96875-36.101563 0l-.550781-.550782c-9.96875-9.96875-26.132813-9.96875-36.101563 0l-.550781.550782c-9.96875 9.96875-26.132812 9.96875-36.105469 0l-.546874-.550782c-9.96875-9.96875-26.132813-9.96875-36.105469 0l-.546875.550782c-9.972656 9.96875-26.136719 9.96875-36.105469 0l-.550781-.550782c-9.96875-9.96875-26.132813-9.96875-36.101563 0l-.550781.550782c-9.96875 9.96875-26.132812 9.96875-36.101562 0l-.550782-.550782c-9.96875-9.96875-26.132812-9.96875-36.101562 0l-.550782.550782c-9.96875 9.96875-26.136718 9.96875-36.105468 0l-.546875-.550782c-9.972657-9.96875-26.136719-9.96875-36.105469 0l-.546875.550782c-9.972656 9.96875-9.972656 26.132812 0 36.105468.179687.179688.363281.363282.546875.546876 9.972656 9.972656 9.972656 26.136718 0 36.105468l-.546875.550782c-9.96875 9.96875-9.96875 26.132812 0 36.101562l.546875.550781c9.972656 9.96875 9.972656 26.132813 0 36.101563l-.546875.550781c-9.96875 9.96875-9.96875 26.132813 0 36.101563l.546875.550781c9.972656 9.96875 9.972656 26.132812 0 36.105469l-.546875.546874c-9.96875 9.96875-9.96875 26.132813 0 36.105469l.546875.546875c9.972656 9.972656 9.972656 26.136719 0 36.105469l-.546875.550781c-9.96875 9.96875-9.96875 26.132813 0 36.101563l.546875.550781c9.972656 9.96875 9.972656 26.132812 0 36.101562l-.546875.550782c-9.96875 9.96875-9.96875 26.132812 0 36.101562l.546875.550782c5.871094 5.867187 8.28125 13.886718 7.238281 21.519531 7.636719-1.039063 15.652344 1.371093 21.519531 7.238281l.550782.550781c9.96875 9.96875 26.132812 9.96875 36.105468 0l.546876-.550781c9.972656-9.96875 26.136718-9.96875 36.105468 0l.546875.550781c9.972657 9.96875 26.136719 9.96875 36.105469 0l.550781-.550781c9.96875-9.96875 26.132813-9.96875 36.101563 0l.550781.550781c9.96875 9.96875 26.132813 9.96875 36.101563 0l.550781-.550781c9.96875-9.96875 26.132812-9.96875 36.105469 0l.546874.550781c9.96875 9.96875 26.132813 9.96875 36.105469 0l.546875-.550781c9.972656-9.96875 26.136719-9.96875 36.105469 0l.546875.550781c9.972656 9.96875 26.136719 9.96875 36.105469 0l.550781-.550781c9.96875-9.96875 26.132812-9.96875 36.101562 0l.550782.550781c9.96875 9.96875 26.132812 9.96875 36.105468 0l.546876-.550781c9.96875-9.96875 9.96875-26.132812 0-36.105469l-.546876-.546875c-9.972656-9.96875-9.972656-26.132812 0-36.105468l.546876-.546876c9.96875-9.972656 9.96875-26.136718 0-36.105468l-.546876-.546875c-9.972656-9.972657-9.972656-26.136719 0-36.105469l.546876-.550781c9.96875-9.96875 9.96875-26.132813 0-36.101563l-.546876-.550781c-9.972656-9.96875-9.972656-26.132813 0-36.101563l.546876-.550781c9.96875-9.96875 9.96875-26.132812 0-36.105469l-.546876-.546874c-9.972656-9.96875-9.972656-26.132813 0-36.105469l.546876-.546875c9.96875-9.972656 9.96875-26.136719 0-36.105469l-.546876-.546875c-9.972656-9.972656-9.972656-26.136719 0-36.105469zm0 0" fill="#65b530" data-original="#36d28f" class=""></path><path xmlns="http://www.w3.org/2000/svg" d="m75.09375 105.09375h-11.09375c-5.523438 0-10-4.476562-10-10s4.476562-10 10-10h11.09375c5.519531 0 10 4.476562 10 10s-4.480469 10-10 10zm0 0" fill="#000000" data-original="#000000" class=""></path><path xmlns="http://www.w3.org/2000/svg" d="m126.1875 105.09375h-11.09375c-5.523438 0-10-4.476562-10-10s4.476562-10 10-10h11.09375c5.519531 0 10 4.476562 10 10s-4.480469 10-10 10zm0 0" fill="#000000" data-original="#000000" class=""></path><path xmlns="http://www.w3.org/2000/svg" d="m95.09375 136.183594c-5.523438 0-10-4.476563-10-10v-11.089844c0-5.523438 4.476562-10 10-10 5.519531 0 10 4.476562 10 10v11.089844c0 5.523437-4.480469 10-10 10zm0 0" fill="#000000" data-original="#000000" class=""></path><path xmlns="http://www.w3.org/2000/svg" d="m95.09375 85.09375c-5.523438 0-10-4.476562-10-10v-11.09375c0-5.523438 4.476562-10 10-10 5.519531 0 10 4.476562 10 10v11.09375c0 5.523438-4.480469 10-10 10zm0 0" fill="#000000" data-original="#000000" class=""></path><path xmlns="http://www.w3.org/2000/svg" d="m236 105.09375h-11.09375c-5.519531 0-10-4.476562-10-10s4.480469-10 10-10h11.09375c5.523438 0 10 4.476562 10 10s-4.476562 10-10 10zm0 0" fill="#000000" data-original="#000000" class=""></path><path xmlns="http://www.w3.org/2000/svg" d="m287.09375 105.09375h-11.09375c-5.523438 0-10-4.476562-10-10s4.476562-10 10-10h11.09375c5.519531 0 10 4.476562 10 10s-4.480469 10-10 10zm0 0" fill="#000000" data-original="#000000" class=""></path><path xmlns="http://www.w3.org/2000/svg" d="m256 136.183594c-5.523438 0-10-4.476563-10-10v-11.089844c0-5.523438 4.476562-10 10-10s10 4.476562 10 10v11.089844c0 5.523437-4.476562 10-10 10zm0 0" fill="#000000" data-original="#000000" class=""></path><path xmlns="http://www.w3.org/2000/svg" d="m256 85.09375c-5.523438 0-10-4.476562-10-10v-11.09375c0-5.523438 4.476562-10 10-10s10 4.476562 10 10v11.09375c0 5.523438-4.476562 10-10 10zm0 0" fill="#000000" data-original="#000000" class=""></path><path xmlns="http://www.w3.org/2000/svg" d="m396.90625 105.09375h-11.09375c-5.519531 0-10-4.476562-10-10s4.480469-10 10-10h11.09375c5.523438 0 10 4.476562 10 10s-4.476562 10-10 10zm0 0" fill="#000000" data-original="#000000" class=""></path><path xmlns="http://www.w3.org/2000/svg" d="m448 105.09375h-11.09375c-5.519531 0-10-4.476562-10-10s4.480469-10 10-10h11.09375c5.523438 0 10 4.476562 10 10s-4.476562 10-10 10zm0 0" fill="#000000" data-original="#000000" class=""></path><path xmlns="http://www.w3.org/2000/svg" d="m416.90625 136.183594c-5.519531 0-10-4.476563-10-10v-11.089844c0-5.523438 4.480469-10 10-10 5.523438 0 10 4.476562 10 10v11.089844c0 5.523437-4.476562 10-10 10zm0 0" fill="#000000" data-original="#000000" class=""></path><path xmlns="http://www.w3.org/2000/svg" d="m416.90625 85.09375c-5.519531 0-10-4.476562-10-10v-11.09375c0-5.523438 4.480469-10 10-10 5.523438 0 10 4.476562 10 10v11.09375c0 5.523438-4.476562 10-10 10zm0 0" fill="#000000" data-original="#000000" class=""></path><path xmlns="http://www.w3.org/2000/svg" d="m75.09375 266h-11.09375c-5.523438 0-10-4.476562-10-10s4.476562-10 10-10h11.09375c5.519531 0 10 4.476562 10 10s-4.480469 10-10 10zm0 0" fill="#000000" data-original="#000000" class=""></path><path xmlns="http://www.w3.org/2000/svg" d="m126.1875 266h-11.09375c-5.523438 0-10-4.476562-10-10s4.476562-10 10-10h11.09375c5.519531 0 10 4.476562 10 10s-4.480469 10-10 10zm0 0" fill="#000000" data-original="#000000" class=""></path><path xmlns="http://www.w3.org/2000/svg" d="m95.09375 297.09375c-5.523438 0-10-4.476562-10-10v-11.09375c0-5.523438 4.476562-10 10-10 5.519531 0 10 4.476562 10 10v11.09375c0 5.523438-4.480469 10-10 10zm0 0" fill="#000000" data-original="#000000" class=""></path><path xmlns="http://www.w3.org/2000/svg" d="m95.09375 246c-5.523438 0-10-4.476562-10-10v-11.09375c0-5.523438 4.476562-10 10-10 5.519531 0 10 4.476562 10 10v11.09375c0 5.523438-4.480469 10-10 10zm0 0" fill="#000000" data-original="#000000" class=""></path><path xmlns="http://www.w3.org/2000/svg" d="m236 266h-11.09375c-5.519531 0-10-4.476562-10-10s4.480469-10 10-10h11.09375c5.523438 0 10 4.476562 10 10s-4.476562 10-10 10zm0 0" fill="#000000" data-original="#000000" class=""></path><path xmlns="http://www.w3.org/2000/svg" d="m287.09375 266h-11.09375c-5.523438 0-10-4.476562-10-10s4.476562-10 10-10h11.09375c5.519531 0 10 4.476562 10 10s-4.480469 10-10 10zm0 0" fill="#000000" data-original="#000000" class=""></path><path xmlns="http://www.w3.org/2000/svg" d="m256 297.09375c-5.523438 0-10-4.476562-10-10v-11.09375c0-5.523438 4.476562-10 10-10s10 4.476562 10 10v11.09375c0 5.523438-4.476562 10-10 10zm0 0" fill="#000000" data-original="#000000" class=""></path><path xmlns="http://www.w3.org/2000/svg" d="m256 246c-5.523438 0-10-4.476562-10-10v-11.09375c0-5.523438 4.476562-10 10-10s10 4.476562 10 10v11.09375c0 5.523438-4.476562 10-10 10zm0 0" fill="#000000" data-original="#000000" class=""></path><path xmlns="http://www.w3.org/2000/svg" d="m396.90625 266h-11.09375c-5.519531 0-10-4.476562-10-10s4.480469-10 10-10h11.09375c5.523438 0 10 4.476562 10 10s-4.476562 10-10 10zm0 0" fill="#000000" data-original="#000000" class=""></path><path xmlns="http://www.w3.org/2000/svg" d="m448 266h-11.09375c-5.519531 0-10-4.476562-10-10s4.480469-10 10-10h11.09375c5.523438 0 10 4.476562 10 10s-4.476562 10-10 10zm0 0" fill="#000000" data-original="#000000" class=""></path><path xmlns="http://www.w3.org/2000/svg" d="m416.90625 297.09375c-5.519531 0-10-4.476562-10-10v-11.09375c0-5.523438 4.480469-10 10-10 5.523438 0 10 4.476562 10 10v11.09375c0 5.523438-4.476562 10-10 10zm0 0" fill="#000000" data-original="#000000" class=""></path><path xmlns="http://www.w3.org/2000/svg" d="m416.90625 246c-5.519531 0-10-4.476562-10-10v-11.09375c0-5.523438 4.480469-10 10-10 5.523438 0 10 4.476562 10 10v11.09375c0 5.523438-4.476562 10-10 10zm0 0" fill="#000000" data-original="#000000" class=""></path><path xmlns="http://www.w3.org/2000/svg" d="m75.09375 426.90625h-11.09375c-5.523438 0-10-4.476562-10-10s4.476562-10 10-10h11.09375c5.519531 0 10 4.476562 10 10s-4.480469 10-10 10zm0 0" fill="#000000" data-original="#000000" class=""></path><path xmlns="http://www.w3.org/2000/svg" d="m126.1875 426.90625h-11.09375c-5.523438 0-10-4.476562-10-10s4.476562-10 10-10h11.09375c5.519531 0 10 4.476562 10 10s-4.480469 10-10 10zm0 0" fill="#000000" data-original="#000000" class=""></path><path xmlns="http://www.w3.org/2000/svg" d="m95.09375 458c-5.523438 0-10-4.476562-10-10v-11.09375c0-5.523438 4.476562-10 10-10 5.519531 0 10 4.476562 10 10v11.09375c0 5.523438-4.480469 10-10 10zm0 0" fill="#000000" data-original="#000000" class=""></path><path xmlns="http://www.w3.org/2000/svg" d="m95.09375 406.90625c-5.523438 0-10-4.476562-10-10v-11.089844c0-5.523437 4.476562-10 10-10 5.519531 0 10 4.476563 10 10v11.089844c0 5.523438-4.480469 10-10 10zm0 0" fill="#000000" data-original="#000000" class=""></path><path xmlns="http://www.w3.org/2000/svg" d="m155.546875 185.546875h-11.09375c-5.519531 0-10-4.476563-10-10s4.480469-10 10-10h11.09375c5.519531 0 10 4.476563 10 10s-4.480469 10-10 10zm0 0" fill="#000000" data-original="#000000" class=""></path><path xmlns="http://www.w3.org/2000/svg" d="m206.640625 185.546875h-11.09375c-5.523437 0-10-4.476563-10-10s4.476563-10 10-10h11.09375c5.519531 0 10 4.476563 10 10s-4.480469 10-10 10zm0 0" fill="#000000" data-original="#000000" class=""></path><path xmlns="http://www.w3.org/2000/svg" d="m175.546875 216.640625c-5.523437 0-10-4.480469-10-10v-11.09375c0-5.523437 4.476563-10 10-10 5.519531 0 10 4.476563 10 10v11.09375c0 5.519531-4.480469 10-10 10zm0 0" fill="#000000" data-original="#000000" class=""></path><path xmlns="http://www.w3.org/2000/svg" d="m175.546875 165.546875c-5.523437 0-10-4.476563-10-10v-11.09375c0-5.523437 4.476563-10 10-10 5.519531 0 10 4.476563 10 10v11.09375c0 5.523437-4.480469 10-10 10zm0 0" fill="#000000" data-original="#000000" class=""></path><path xmlns="http://www.w3.org/2000/svg" d="m155.546875 346.453125h-11.09375c-5.519531 0-10-4.476563-10-10s4.480469-10 10-10h11.09375c5.519531 0 10 4.476563 10 10s-4.480469 10-10 10zm0 0" fill="#000000" data-original="#000000" class=""></path><path xmlns="http://www.w3.org/2000/svg" d="m206.640625 346.453125h-11.09375c-5.523437 0-10-4.476563-10-10s4.476563-10 10-10h11.09375c5.519531 0 10 4.476563 10 10s-4.480469 10-10 10zm0 0" fill="#000000" data-original="#000000" class=""></path><path xmlns="http://www.w3.org/2000/svg" d="m175.546875 377.546875c-5.523437 0-10-4.476563-10-10v-11.09375c0-5.523437 4.476563-10 10-10 5.519531 0 10 4.476563 10 10v11.09375c0 5.523437-4.480469 10-10 10zm0 0" fill="#000000" data-original="#000000" class=""></path><path xmlns="http://www.w3.org/2000/svg" d="m175.546875 326.453125c-5.523437 0-10-4.476563-10-10v-11.089844c0-5.523437 4.476563-10 10-10 5.519531 0 10 4.476563 10 10v11.089844c0 5.523437-4.480469 10-10 10zm0 0" fill="#000000" data-original="#000000" class=""></path><path xmlns="http://www.w3.org/2000/svg" d="m367.546875 185.546875h-11.09375c-5.519531 0-10-4.476563-10-10s4.480469-10 10-10h11.09375c5.519531 0 10 4.476563 10 10s-4.480469 10-10 10zm0 0" fill="#000000" data-original="#000000" class=""></path><path xmlns="http://www.w3.org/2000/svg" d="m316.453125 185.546875h-11.09375c-5.519531 0-10-4.476563-10-10s4.480469-10 10-10h11.09375c5.523437 0 10 4.476563 10 10s-4.476563 10-10 10zm0 0" fill="#000000" data-original="#000000" class=""></path><path xmlns="http://www.w3.org/2000/svg" d="m336.453125 216.640625c-5.519531 0-10-4.480469-10-10v-11.09375c0-5.523437 4.480469-10 10-10 5.523437 0 10 4.476563 10 10v11.09375c0 5.519531-4.476563 10-10 10zm0 0" fill="#000000" data-original="#000000" class=""></path><path xmlns="http://www.w3.org/2000/svg" d="m336.453125 165.546875c-5.519531 0-10-4.476563-10-10v-11.09375c0-5.523437 4.480469-10 10-10 5.523437 0 10 4.476563 10 10v11.09375c0 5.523437-4.476563 10-10 10zm0 0" fill="#000000" data-original="#000000" class=""></path><path xmlns="http://www.w3.org/2000/svg" d="m367.546875 346.453125h-11.09375c-5.519531 0-10-4.476563-10-10s4.480469-10 10-10h11.09375c5.519531 0 10 4.476563 10 10s-4.480469 10-10 10zm0 0" fill="#000000" data-original="#000000" class=""></path><path xmlns="http://www.w3.org/2000/svg" d="m316.453125 346.453125h-11.09375c-5.519531 0-10-4.476563-10-10s4.480469-10 10-10h11.09375c5.523437 0 10 4.476563 10 10s-4.476563 10-10 10zm0 0" fill="#000000" data-original="#000000" class=""></path><path xmlns="http://www.w3.org/2000/svg" d="m336.453125 377.546875c-5.519531 0-10-4.476563-10-10v-11.09375c0-5.523437 4.480469-10 10-10 5.523437 0 10 4.476563 10 10v11.09375c0 5.523437-4.476563 10-10 10zm0 0" fill="#000000" data-original="#000000" class=""></path><path xmlns="http://www.w3.org/2000/svg" d="m336.453125 326.453125c-5.519531 0-10-4.476563-10-10v-11.089844c0-5.523437 4.480469-10 10-10 5.523437 0 10 4.476563 10 10v11.089844c0 5.523437-4.476563 10-10 10zm0 0" fill="#000000" data-original="#000000" class=""></path><path xmlns="http://www.w3.org/2000/svg" d="m236 426.90625h-11.09375c-5.519531 0-10-4.476562-10-10s4.480469-10 10-10h11.09375c5.523438 0 10 4.476562 10 10s-4.476562 10-10 10zm0 0" fill="#000000" data-original="#000000" class=""></path><path xmlns="http://www.w3.org/2000/svg" d="m287.09375 426.90625h-11.09375c-5.523438 0-10-4.476562-10-10s4.476562-10 10-10h11.09375c5.519531 0 10 4.476562 10 10s-4.480469 10-10 10zm0 0" fill="#000000" data-original="#000000" class=""></path><path xmlns="http://www.w3.org/2000/svg" d="m256 458c-5.523438 0-10-4.476562-10-10v-11.09375c0-5.523438 4.476562-10 10-10s10 4.476562 10 10v11.09375c0 5.523438-4.476562 10-10 10zm0 0" fill="#000000" data-original="#000000" class=""></path><path xmlns="http://www.w3.org/2000/svg" d="m256 406.90625c-5.523438 0-10-4.476562-10-10v-11.089844c0-5.523437 4.476562-10 10-10s10 4.476563 10 10v11.089844c0 5.523438-4.476562 10-10 10zm0 0" fill="#000000" data-original="#000000" class=""></path><path xmlns="http://www.w3.org/2000/svg" d="m396.90625 426.90625h-11.09375c-5.519531 0-10-4.476562-10-10s4.480469-10 10-10h11.09375c5.523438 0 10 4.476562 10 10s-4.476562 10-10 10zm0 0" fill="#000000" data-original="#000000" class=""></path><path xmlns="http://www.w3.org/2000/svg" d="m448 426.90625h-11.09375c-5.519531 0-10-4.476562-10-10s4.480469-10 10-10h11.09375c5.523438 0 10 4.476562 10 10s-4.476562 10-10 10zm0 0" fill="#000000" data-original="#000000" class=""></path><path xmlns="http://www.w3.org/2000/svg" d="m416.90625 458c-5.519531 0-10-4.476562-10-10v-11.09375c0-5.523438 4.480469-10 10-10 5.523438 0 10 4.476562 10 10v11.09375c0 5.523438-4.476562 10-10 10zm0 0" fill="#000000" data-original="#000000" class=""></path><path xmlns="http://www.w3.org/2000/svg" d="m416.90625 406.90625c-5.519531 0-10-4.476562-10-10v-11.089844c0-5.523437 4.480469-10 10-10 5.523438 0 10 4.476563 10 10v11.089844c0 5.523438-4.476562 10-10 10zm0 0" fill="#000000" data-original="#000000" class=""></path><path xmlns="http://www.w3.org/2000/svg" d="m475.921875 512c-9.492187 0-18.414063-3.695312-25.125-10.40625l-.546875-.546875c-6.058594-6.058594-15.910156-6.058594-21.964844-.003906l-.550781.554687c-6.707031 6.707032-15.628906 10.402344-25.121094 10.402344-9.488281 0-18.410156-3.695312-25.121093-10.40625l-.546876-.546875c-6.058593-6.058594-15.910156-6.058594-21.96875-.003906l-.542968.546875c-6.714844 6.714844-15.636719 10.410156-25.128906 10.410156-9.488282 0-18.410157-3.695312-25.121094-10.40625l-.550782-.554688c-6.054687-6.050781-15.90625-6.050781-21.960937.003907l-.554687.554687c-6.707032 6.707032-15.628907 10.402344-25.117188 10.402344-9.492188 0-18.414062-3.695312-25.125-10.40625l-.546875-.546875c-6.058594-6.058594-15.910156-6.058594-21.964844-.003906l-.546875.546875c-6.710937 6.714844-15.632812 10.410156-25.125 10.410156-9.492187 0-18.414062-3.695312-25.125-10.40625l-.550781-.554688c-2.929687-2.929687-6.828125-4.542968-10.980469-4.542968-4.144531 0-8.046875 1.617187-10.976562 4.546875l-.546875.546875c-6.714844 6.714844-15.636719 10.410156-25.128907 10.410156-9.488281 0-18.410156-3.695312-25.121093-10.40625l-.546875-.546875c-6.058594-6.058594-15.910156-6.058594-21.964844-.003906l-.554688.554687c-6.703124 6.707032-15.625 10.402344-25.117187 10.402344-9.488281 0-18.414063-3.695312-25.125-10.40625l-.550781-.554688c-13.847656-13.847656-13.847656-36.386718.003906-50.242187l.546875-.542969c2.9375-2.9375 4.550781-6.839844 4.550781-10.984375 0-4.148437-1.613281-8.050781-4.550781-10.984375l-.550781-.550781c-13.847656-13.851563-13.847656-36.390625.003906-50.242187l.546875-.546876c2.9375-2.9375 4.550781-6.835937 4.550781-10.984374 0-4.148438-1.613281-8.046876-4.546875-10.980469l-.554687-.554688c-13.847656-13.847656-13.847656-36.390625.003906-50.242187l.546875-.546875c2.9375-2.9375 4.550781-6.835938 4.550781-10.984375 0-4.144532-1.613281-8.046875-4.546875-10.976563l-.554687-.554687c-13.847656-13.851563-13.847656-36.390625.003906-50.242188l.546875-.546875c2.9375-2.9375 4.550781-6.835937 4.550781-10.984375 0-4.148437-1.613281-8.046875-4.546875-10.980468l-.554687-.554688c-6.707032-6.707031-10.402344-15.628906-10.402344-25.117188 0-9.492187 3.695312-18.414062 10.40625-25.125l.546875-.546874c2.9375-2.933594 4.550781-6.835938 4.550781-10.984376 0-4.144531-1.613281-8.046874-4.546875-10.980468l-.554687-.550782c-13.847656-13.851562-13.847656-36.390624.003906-50.242187l.546875-.546875c2.9375-2.9375 4.550781-6.835938 4.550781-10.984375s-1.613281-8.046875-4.546875-10.980469l-.558593-.558594c-13.84375-13.847656-13.84375-36.386718.007812-50.238281l.546875-.546875c6.710937-6.714844 15.636719-10.410156 25.125-10.410156 9.492187 0 18.414063 3.695312 25.125 10.40625l.546875.546875c6.058594 6.058594 15.910156 6.058594 21.964844.003906l.550781-.554687c6.707031-6.707032 15.628906-10.402344 25.121094-10.402344 9.488281 0 18.414062 3.695312 25.125 10.40625l.550781.554688c2.929688 2.929687 6.828125 4.542968 10.976562 4.542968 4.148438 0 8.050782-1.617187 10.980469-4.546875l.546875-.546875c6.714844-6.714844 15.636719-10.410156 25.125-10.410156 9.492188 0 18.414063 3.695312 25.125 10.40625l.546875.546875c2.9375 2.9375 6.835938 4.550781 10.984375 4.550781 4.144532 0 8.046875-1.613281 10.976563-4.546875l.554687-.554687c6.710938-6.707032 15.632813-10.402344 25.121094-10.402344s18.410156 3.695312 25.121094 10.40625l.550781.546875c6.054687 6.058594 15.90625 6.058594 21.964844.003906l.542969-.546875c6.714843-6.714844 15.636718-10.410156 25.128906-10.410156 9.488281 0 18.410156 3.695312 25.121094 10.40625l.554687.554688c6.050781 6.050781 15.902344 6.050781 21.957031-.003907l.554688-.554687c6.707031-6.707032 15.628906-10.402344 25.117187-10.402344 9.492188 0 18.414063 3.695312 25.125 10.40625l.546875.546875c6.058594 6.058594 15.910156 6.058594 21.960938.003906l.554687-.554687c6.707031-6.707032 15.628907-10.402344 25.121094-10.402344 9.488281 0 18.414063 3.695312 25.125 10.40625l.550781.554688c13.847656 13.847656 13.847656 36.386718-.003906 50.242187l-.546875.542969c-2.9375 2.9375-4.550781 6.839844-4.550781 10.984375 0 4.148437 1.613281 8.050781 4.550781 10.984375l.550781.550781c13.847656 13.851563 13.847656 36.390625-.003906 50.242187l-.546875.546876c-2.9375 2.9375-4.550781 6.835937-4.550781 10.984374 0 4.148438 1.613281 8.046876 4.546875 10.980469l.554687.554688c13.847656 13.847656 13.847656 36.390625-.003906 50.242187l-.546875.546875c-2.9375 2.9375-4.550781 6.835938-4.550781 10.984375 0 4.144532 1.613281 8.046875 4.546875 10.980469l.554687.550781c13.847656 13.851563 13.847656 36.390625-.003906 50.242188l-.546875.546875c-2.9375 2.9375-4.550781 6.835937-4.550781 10.984375 0 4.148437 1.613281 8.046875 4.546875 10.980468l.554687.554688c13.847656 13.847656 13.847656 36.390625-.003906 50.242188l-.546875.546874c-2.9375 2.9375-4.550781 6.835938-4.550781 10.984376 0 4.144531 1.613281 8.046874 4.546875 10.980468l.554687.550782c13.847656 13.851562 13.847656 36.390624-.003906 50.242187l-.546875.546875c-2.9375 2.9375-4.550781 6.835938-4.550781 10.984375s1.613281 8.046875 4.550781 10.980469l.550781.554687c13.847656 13.847657 13.851563 36.386719 0 50.238281l-.550781.550782c-6.710937 6.714844-15.636719 10.410156-25.125 10.410156zm-36.652344-35.503906c9.488281 0 18.410157 3.695312 25.121094 10.40625l.546875.546875c2.9375 2.9375 6.835938 4.550781 10.984375 4.550781s8.046875-1.613281 10.980469-4.550781l.546875-.542969c0-.003906 0-.003906 0-.003906 6.058593-6.054688 6.058593-15.90625 0-21.960938l-.550781-.554687c-6.707032-6.707031-10.402344-15.628907-10.402344-25.117188 0-9.492187 3.695312-18.414062 10.40625-25.125l.546875-.546875c6.058593-6.058594 6.058593-15.910156 0-21.964844l-.550781-.554687c-6.707032-6.707031-10.402344-15.628906-10.402344-25.117187 0-9.492188 3.695312-18.414063 10.40625-25.125l.546875-.546876c6.058593-6.058593 6.058593-15.910156 0-21.964843l-.550781-.550781c-6.707032-6.707032-10.402344-15.628907-10.402344-25.121094 0-9.492188 3.695312-18.414063 10.40625-25.125l.546875-.542969c6.058593-6.058594 6.058593-15.914063 0-21.96875l-.550781-.550781c-6.707032-6.707032-10.402344-15.628906-10.402344-25.121094 0-9.488281 3.695312-18.410156 10.40625-25.121094l.546875-.546875c6.058593-6.058593 6.058593-15.910156 0-21.964843l-.550781-.554688c-6.707032-6.707031-10.402344-15.628906-10.402344-25.121094 0-9.488281 3.695312-18.410156 10.40625-25.121094l.546875-.546874c6.058593-6.058594 6.058593-15.910157 0-21.964844l-.550781-.550782c-6.707032-6.710937-10.402344-15.632812-10.402344-25.121093 0-9.492188 3.695312-18.414063 10.40625-25.125l.546875-.546875c6.058593-6.054688 6.058593-15.910156 0-21.964844l-.550781-.550781c-2.929688-2.929688-6.828126-4.546875-10.976563-4.546875s-8.050781 1.617187-10.980469 4.550781l-.554687.550781c-6.707031 6.707032-15.628907 10.402344-25.121094 10.402344-9.488281 0-18.410156-3.695312-25.121094-10.40625l-.546875-.542969c-2.9375-2.9375-6.835937-4.550781-10.984375-4.550781-4.148437 0-8.046875 1.613281-10.980469 4.546875l-.550781.554687c-13.851562 13.847657-36.394531 13.847657-50.242187-.003906l-.554688-.550781c-2.929687-2.933594-6.832031-4.546875-10.980468-4.546875-4.144532 0-8.046876 1.613281-10.980469 4.546875l-.542969.546875c-13.859375 13.855469-36.398438 13.855469-50.25.003906l-.546875-.546875c-2.9375-2.9375-6.835937-4.550781-10.984375-4.550781s-8.046875 1.613281-10.980469 4.546875l-.550781.554687c-13.855469 13.847657-36.390625 13.847657-50.246094-.003906l-.546875-.546875c-2.933593-2.9375-6.835937-4.550781-10.984375-4.550781-4.144531 0-8.046875 1.613281-10.980468 4.546875l-.546876.546875c-13.851562 13.855469-36.394531 13.855469-50.25.003906l-.550781-.554687c-2.929687-2.929688-6.828125-4.542969-10.976562-4.542969-4.148438 0-8.050781 1.613281-10.980469 4.546875l-.554688.554687c-6.707031 6.707032-15.628906 10.402344-25.121093 10.402344-9.488281 0-18.410157-3.695312-25.121094-10.40625l-.546875-.546875c-2.933594-2.9375-6.835938-4.550781-10.984375-4.550781s-8.046875 1.613281-10.980469 4.550781l-.546875.542969c-6.058593 6.058594-6.058593 15.910156 0 21.964844l.546875.550781c6.710938 6.710937 10.40625 15.632813 10.40625 25.125 0 9.488281-3.695312 18.410156-10.40625 25.121094l-.546875.546875c-6.058593 6.058594-6.058593 15.910156 0 21.964844l.550781.554687c6.707032 6.707031 10.402344 15.628906 10.402344 25.117187 0 9.492188-3.695312 18.414063-10.40625 25.125l-.546875.546876c-6.058593 6.058593-6.058593 15.910156 0 21.964843l.550781.550781c6.707032 6.707032 10.402344 15.628907 10.402344 25.121094 0 9.492188-3.695312 18.414063-10.40625 25.125l-.546875.542969c-6.058593 6.058594-6.058593 15.914063 0 21.96875l.550781.550781c6.707032 6.707032 10.402344 15.628906 10.402344 25.121094 0 9.488281-3.695312 18.410156-10.40625 25.121094l-.546875.546875c-6.058593 6.058593-6.058593 15.910156 0 21.964843l.550781.554688c6.707032 6.707031 10.402344 15.628906 10.402344 25.121094 0 9.488281-3.695312 18.410156-10.40625 25.121094l-.546875.546874c-6.058593 6.058594-6.058593 15.910157 0 21.964844l.550781.550782c6.707032 6.710937 10.402344 15.632812 10.402344 25.121093 0 9.492188-3.695312 18.414063-10.40625 25.125l-.546875.546875c-6.058593 6.054688-6.058593 15.910156 0 21.964844l.550781.550781c2.929688 2.929688 6.828126 4.546875 10.976563 4.546875s8.050781-1.617187 10.980469-4.550781l.554687-.550781c6.707031-6.707032 15.628907-10.402344 25.121094-10.402344 9.488281 0 18.410156 3.695312 25.121094 10.40625l.546875.542969c2.9375 2.9375 6.835937 4.554687 10.984375 4.554687 4.148437 0 8.046875-1.617187 10.980469-4.550781l.546874-.546875c13.855469-13.855469 36.394532-13.855469 50.25 0l.550782.550781c2.929687 2.929688 6.832031 4.546875 10.980468 4.546875 4.144532 0 8.046876-1.617187 10.980469-4.550781l.542969-.542969c13.859375-13.855468 36.398438-13.855468 50.25-.003906l.546875.546875c2.9375 2.9375 6.835937 4.550781 10.984375 4.550781s8.046875-1.613281 10.980469-4.546875l.550781-.554687c13.851562-13.847656 36.394531-13.847656 50.246094.003906l.550781.554688c2.929687 2.929687 6.832031 4.542968 10.980469 4.542968 4.144531 0 8.046875-1.613281 10.980468-4.546875l.546876-.546875c13.855468-13.855468 36.394531-13.855468 50.25-.003906l.546874.546875c2.933594 2.9375 6.835938 4.550781 10.980469 4.550781 4.148438 0 8.046875-1.613281 10.980469-4.546875l.554688-.554687c6.707031-6.710938 15.628906-10.40625 25.121093-10.40625zm0 0" fill="#000000" data-original="#000000" class=""></path></g></svg> 